<svg id="Layer_1" data-name="Layer 1" xmlns="http://www.w3.org/2000/svg" viewBox="0 0 156 32"><defs><style>.cls-1{fill:#2f55db;}.cls-2{fill:#1e266d;}</style></defs><title>logo</title><path class="cls-1" d="M47.7,14.783A26.721,26.721,0,0,0,23.995,0,26.725,26.725,0,0,0,.29,14.784a2.7,2.7,0,0,0,0,2.433A26.721,26.721,0,0,0,23.995,32,26.725,26.725,0,0,0,47.7,17.216,2.7,2.7,0,0,0,47.7,14.783ZM23.995,28a11.992,11.992,0,1,1,.012,0H23.995Zm0-20a7.938,7.938,0,0,0-2.109.316,3.987,3.987,0,0,1-5.574,5.575A7.982,7.982,0,1,0,23.995,8Z"/><path class="cls-2" d="M83.945,29.273H78.615L68.244,12.231V29.273H62.916V3.372h5.328L78.635,20.45V3.372h5.31v25.9Z"/><path class="cls-2" d="M99.4,29.273a5.729,5.729,0,0,1-.516-1.726,6.2,6.2,0,0,1-4.849,2.082,6.818,6.818,0,0,1-4.68-1.637A5.268,5.268,0,0,1,87.5,23.866a5.444,5.444,0,0,1,2.264-4.7,11.163,11.163,0,0,1,6.545-1.654h2.362v-1.1a3.176,3.176,0,0,0-.684-2.135,2.688,2.688,0,0,0-2.158-.8,3.062,3.062,0,0,0-2.034.622,2.119,2.119,0,0,0-.737,1.709H87.923a5.173,5.173,0,0,1,1.03-3.1,6.81,6.81,0,0,1,2.913-2.232,10.59,10.59,0,0,1,4.227-.811,8.377,8.377,0,0,1,5.639,1.789,6.258,6.258,0,0,1,2.086,5.025v8.343a9.218,9.218,0,0,0,.764,4.146v0.3H99.4ZM95.151,25.7a4.413,4.413,0,0,0,2.1-.508,3.327,3.327,0,0,0,1.422-1.36v-3.31H96.749q-3.854,0-4.1,2.669l-0.018.3a2.062,2.062,0,0,0,.675,1.584A2.621,2.621,0,0,0,95.151,25.7Z"/><path class="cls-2" d="M112.576,10.025l0.16,2.152a6.748,6.748,0,0,1,5.523-2.509q3.712,0,5.1,2.936a6.594,6.594,0,0,1,5.772-2.936,5.729,5.729,0,0,1,4.654,1.824,8.394,8.394,0,0,1,1.527,5.488V29.273h-5.15V17a3.668,3.668,0,0,0-.64-2.393,2.832,2.832,0,0,0-2.256-.756,3.2,3.2,0,0,0-3.2,2.205l0.018,13.218h-5.133V17.017a3.627,3.627,0,0,0-.657-2.42,2.857,2.857,0,0,0-2.238-.746,3.323,3.323,0,0,0-3.161,1.814V29.273h-5.133V10.025h4.814Z"/><path class="cls-2" d="M148.1,29.63a9.424,9.424,0,0,1-6.883-2.6,9.239,9.239,0,0,1-2.655-6.92v-0.5a11.641,11.641,0,0,1,1.118-5.186,8.224,8.224,0,0,1,3.171-3.523,8.893,8.893,0,0,1,4.68-1.236,7.968,7.968,0,0,1,6.207,2.491Q156,14.652,156,19.223v2.1H143.763a4.777,4.777,0,0,0,1.5,3.024,4.534,4.534,0,0,0,3.171,1.139,5.537,5.537,0,0,0,4.635-2.152l2.522,2.828a7.711,7.711,0,0,1-3.126,2.553A10.249,10.249,0,0,1,148.1,29.63Zm-0.586-15.815a3.208,3.208,0,0,0-2.478,1.036,5.376,5.376,0,0,0-1.216,2.967h7.14V17.406a3.835,3.835,0,0,0-.924-2.653A3.306,3.306,0,0,0,147.511,13.814Z"/></svg>